<svg xmlns="http://www.w3.org/2000/svg" width="659" height="233" fill="none" xmlns:v="https://vecta.io/nano"><g clip-path="url(#A)"><g fill="#001db7"><path d="M260.26 230.31a12.63 12.63 0 0 1-4.93-4.88c-1.175-2.171-1.79-4.601-1.79-7.07s.615-4.898 1.79-7.07c1.163-2.041 2.869-3.72 4.93-4.85 2.191-1.183 4.65-1.782 7.14-1.74 2.147-.038 4.274.428 6.21 1.36 1.798.886 3.299 2.276 4.32 4l-2.71 1.84a8.44 8.44 0 0 0-3.38-3 9.91 9.91 0 0 0-4.44-1c-1.83-.031-3.637.417-5.24 1.3-1.541.863-2.801 2.151-3.63 3.71-.868 1.704-1.32 3.588-1.32 5.5a12.11 12.11 0 0 0 1.32 5.5c.832 1.549 2.092 2.826 3.63 3.68 1.602.886 3.409 1.338 5.24 1.31 1.536.002 3.053-.34 4.44-1a8.31 8.31 0 0 0 3.38-3l2.71 1.84a10.29 10.29 0 0 1-4.35 4c-1.927.928-4.043 1.393-6.18 1.36a14.51 14.51 0 0 1-7.14-1.79zm28.3-.03a12.79 12.79 0 0 1-4.91-4.88c-1.174-2.166-1.79-4.591-1.79-7.055s.616-4.889 1.79-7.055c1.158-2.039 2.857-3.717 4.91-4.85a15.01 15.01 0 0 1 7-1.733c2.44 0 4.842.595 7 1.733 2.049 1.131 3.743 2.81 4.89 4.85 1.157 2.172 1.763 4.594 1.763 7.055a15 15 0 0 1-1.763 7.055c-1.146 2.048-2.839 3.738-4.89 4.88-2.15 1.162-4.556 1.77-7 1.77s-4.849-.608-7-1.77h0zm12.14-2.76a9.11 9.11 0 0 0 3.55-3.7c.842-1.701 1.28-3.572 1.28-5.47a12.33 12.33 0 0 0-1.28-5.47c-.804-1.55-2.036-2.838-3.55-3.71-1.579-.853-3.345-1.3-5.14-1.3s-3.561.447-5.14 1.3a9.25 9.25 0 0 0-3.57 3.71c-.861 1.695-1.309 3.569-1.309 5.47s.448 3.775 1.309 5.47a9.22 9.22 0 0 0 3.57 3.7c1.577.86 3.344 1.31 5.14 1.31s3.563-.45 5.14-1.31zm57.4-19.87c1.927 1.953 2.89 4.817 2.89 8.59v15.59h-3.63v-15.27c0-2.787-.666-4.917-2-6.39a7.36 7.36 0 0 0-2.611-1.718c-.983-.38-2.037-.544-3.089-.482-1.219-.065-2.437.132-3.574.577a8.56 8.56 0 0 0-3.016 2.003 10.07 10.07 0 0 0-2.4 7.13v14.11h-3.63v-15.23c0-2.79-.68-4.92-2-6.39-.746-.755-1.645-1.342-2.637-1.722a7.46 7.46 0 0 0-3.113-.478c-1.215-.06-2.429.139-3.562.584a8.59 8.59 0 0 0-3.008 1.996c-1.708 1.969-2.58 4.528-2.43 7.13v14.11h-3.63V204.9h3.48v4.91a9.73 9.73 0 0 1 4-3.78c1.823-.914 3.841-1.371 5.88-1.33 2.045-.049 4.067.445 5.86 1.43a8.85 8.85 0 0 1 3.7 4.24c.989-1.772 2.473-3.218 4.27-4.16 1.959-1.032 4.147-1.552 6.36-1.51 1.447-.069 2.892.157 4.248.664s2.596 1.285 3.642 2.286h0zm54.24 0c1.92 1.953 2.88 4.817 2.88 8.59v15.59h-3.62v-15.27c0-2.79-.68-4.92-2-6.39-.738-.752-1.628-1.338-2.611-1.718s-2.037-.544-3.089-.482c-1.22-.065-2.441.131-3.579.576s-2.168 1.128-3.021 2.004a10.07 10.07 0 0 0-2.39 7.1v14.11h-3.63v-15.2c0-2.787-.667-4.917-2-6.39a7.41 7.41 0 0 0-2.636-1.724c-.992-.38-2.054-.542-3.114-.476a8.59 8.59 0 0 0-3.589.573 8.6 8.6 0 0 0-3.031 2.007 10 10 0 0 0-2.43 7.13v14.11h-3.57V204.9h3.47v4.91c.943-1.618 2.332-2.93 4-3.78 1.822-.917 3.841-1.373 5.88-1.33 2.042-.05 4.061.444 5.85 1.43a8.87 8.87 0 0 1 3.71 4.24c.985-1.772 2.465-3.218 4.26-4.16 1.962-1.034 4.153-1.553 6.37-1.51a10.71 10.71 0 0 1 4.247.667c1.356.507 2.596 1.284 3.643 2.283h0zm36.98-2.75v26.89h-3.48v-4.9c-.934 1.595-2.295 2.898-3.93 3.76-1.764.931-3.736 1.399-5.73 1.36-3.507 0-6.273-.98-8.3-2.94s-3.043-4.83-3.05-8.61v-15.6h3.63v15.24c0 2.83.7 5 2.1 6.44a7.89 7.89 0 0 0 2.768 1.734c1.033.379 2.134.538 3.232.466a8.79 8.79 0 0 0 3.627-.578 8.78 8.78 0 0 0 3.073-2.012 10 10 0 0 0 2.45-7.18V204.9h3.61zm31.92 2.75c2 2 3 4.81 3 8.56v15.59h-3.631v-15.24c0-2.787-.696-4.916-2.09-6.39a7.9 7.9 0 0 0-2.767-1.734 7.92 7.92 0 0 0-3.233-.466c-1.262-.066-2.525.13-3.708.573a9.2 9.2 0 0 0-3.172 2.007c-.875.96-1.551 2.085-1.985 3.309a9.74 9.74 0 0 0-.545 3.821v14.11h-3.63V204.9h3.48v5a10.07 10.07 0 0 1 4.11-3.8 13.11 13.11 0 0 1 6.111-1.36 11 11 0 0 1 4.325.638 11.02 11.02 0 0 1 3.735 2.272h0zm12.8-9.39a2.48 2.48 0 0 1-.571-.841c-.131-.316-.195-.656-.189-.999-.003-.334.064-.666.195-.974a2.45 2.45 0 0 1 .565-.816 2.74 2.74 0 0 1 3.79 0c.242.224.436.496.566.799s.197.631.194.961a2.62 2.62 0 0 1-.188 1.024 2.63 2.63 0 0 1-.573.869c-.247.248-.542.444-.866.576a2.62 2.62 0 0 1-1.023.191 2.6 2.6 0 0 1-1.031-.2c-.327-.136-.623-.336-.869-.59h0zm.06 6.64h3.62v26.89h-3.62V204.9zm17.81 25.41a12.57 12.57 0 0 1-4.93-4.88c-1.175-2.171-1.79-4.601-1.79-7.07s.615-4.898 1.79-7.07a12.63 12.63 0 0 1 4.93-4.85 14.45 14.45 0 0 1 7.13-1.74 13.7 13.7 0 0 1 6.21 1.36c1.798.886 3.299 2.276 4.32 4l-2.71 1.84a8.47 8.47 0 0 0-3.37-3 9.99 9.99 0 0 0-4.45-1 10.54 10.54 0 0 0-5.24 1.3c-1.541.863-2.801 2.151-3.63 3.71a12.21 12.21 0 0 0-1.31 5.5 12.2 12.2 0 0 0 1.31 5.5 9.19 9.19 0 0 0 3.63 3.68 10.53 10.53 0 0 0 5.24 1.31 10.38 10.38 0 0 0 4.45-1c1.377-.672 2.543-1.71 3.37-3l2.71 1.84c-1.023 1.73-2.532 3.121-4.34 4a13.82 13.82 0 0 1-6.19 1.36c-2.491.028-4.947-.589-7.13-1.79h0zm42.2-22.98c1.873 1.76 2.81 4.36 2.81 7.8v16.66h-3.48v-4.14c-.847 1.425-2.101 2.564-3.6 3.27a12.55 12.55 0 0 1-5.65 1.18c-2.564.134-5.094-.626-7.16-2.15-.857-.67-1.543-1.533-2.003-2.518s-.682-2.065-.647-3.152a6.82 6.82 0 0 1 .595-3.049c.43-.958 1.075-1.803 1.885-2.471 1.646-1.4 4.276-2.1 7.89-2.1h8.54v-1.63a6.94 6.94 0 0 0-.406-2.856c-.335-.913-.857-1.746-1.534-2.444-1.594-1.304-3.626-1.951-5.68-1.81-1.67-.006-3.328.279-4.9.84-1.468.519-2.825 1.31-4 2.33l-1.64-2.71c1.446-1.205 3.114-2.115 4.91-2.68a19.13 19.13 0 0 1 6-.95c3.506-.033 6.196.827 8.07 2.58zm-4.09 20.45a8.46 8.46 0 0 0 3.27-4.06v-4.4h-8.44c-4.6 0-6.9 1.6-6.9 4.8a4.4 4.4 0 0 0 .434 2.078c.312.646.777 1.207 1.356 1.632a8.2 8.2 0 0 0 5 1.36 9.56 9.56 0 0 0 5.28-1.41h0zm30.89 2.38c-.734.642-1.597 1.12-2.53 1.4-1.014.33-2.074.495-3.14.49a7.13 7.13 0 0 1-3.134-.353 7.12 7.12 0 0 1-2.674-1.673c-.755-.75-1.332-1.66-1.689-2.663s-.485-2.072-.373-3.131v-16.26h-4.81v-3.07h4.81v-5.87H571v5.87h8.17v3.07H571v16.05c-.093 1.33.337 2.643 1.2 3.66.457.435 1 .771 1.594.987a4.56 4.56 0 0 0 1.856.263c.738.002 1.471-.12 2.17-.36a5.44 5.44 0 0 0 1.81-1l1.28 2.59zm6.579-31.9c-.249-.236-.446-.522-.579-.839a2.47 2.47 0 0 1-.191-1.001c-.003-.335.065-.668.197-.976a2.42 2.42 0 0 1 .573-.814 2.73 2.73 0 0 1 1.89-.76c.705 0 1.382.272 1.89.76.243.224.436.496.567.8a2.35 2.35 0 0 1 .193.96 2.66 2.66 0 0 1-1.644 2.449 2.67 2.67 0 0 1-1.532.157c-.515-.099-.989-.348-1.364-.716v-.02zm0 6.64h3.62v26.89h-3.62V204.9zm17.781 25.38c-2.052-1.145-3.747-2.833-4.9-4.88-1.175-2.166-1.79-4.591-1.79-7.055s.615-4.889 1.79-7.055c1.154-2.038 2.85-3.716 4.9-4.85a15 15 0 0 1 7-1.733 15.01 15.01 0 0 1 7 1.733 12.5 12.5 0 0 1 4.88 4.85c1.157 2.172 1.762 4.594 1.762 7.055a15 15 0 0 1-1.762 7.055 12.58 12.58 0 0 1-4.88 4.88 14.75 14.75 0 0 1-7 1.767c-2.444 0-4.849-.607-7-1.767h0zm12.14-2.76a9.13 9.13 0 0 0 3.56-3.7c.836-1.702 1.27-3.573 1.27-5.47a12.41 12.41 0 0 0-1.27-5.47 9.16 9.16 0 0 0-3.56-3.71c-1.577-.853-3.342-1.3-5.135-1.3s-3.558.447-5.135 1.3a9.27 9.27 0 0 0-3.58 3.71c-.855 1.697-1.3 3.57-1.3 5.47s.445 3.773 1.3 5.47a9.25 9.25 0 0 0 3.58 3.7 10.71 10.71 0 0 0 5.135 1.31c1.794 0 3.56-.45 5.135-1.31h0zm37.68-19.87c2 1.96 3 4.814 3 8.56v15.59h-3.63v-15.24c0-2.787-.7-4.916-2.1-6.39-.792-.764-1.734-1.355-2.768-1.734a7.92 7.92 0 0 0-3.232-.466 9.16 9.16 0 0 0-3.705.572 9.17 9.17 0 0 0-3.165 2.008c-.876.96-1.551 2.085-1.985 3.309a9.74 9.74 0 0 0-.545 3.821v14.11h-3.63V204.9h3.47v5a10.09 10.09 0 0 1 4.12-3.8 13.08 13.08 0 0 1 6.11-1.36c1.47-.079 2.941.138 4.325.638s2.655 1.273 3.735 2.272h0z"/></g><g fill="#0d10d1"><path d="M624.29 112.5c-5.694 10.754-14.823 19.294-25.933 24.258s-23.561 6.068-35.371 3.135a54.5 54.5 0 0 1 0-105.786A54.5 54.5 0 0 1 624.29 61.5l29.72-13.27a87 87 0 0 0-40.982-40.006 87 87 0 0 0-56.97-5.863 87 87 0 0 0-66.925 84.969 87.01 87.01 0 0 0 19.047 54.011c12.263 15.338 29.354 26.076 48.494 30.469a87 87 0 0 0 56.926-6.277c17.723-8.457 32.064-22.662 40.69-40.303l-30-12.73zM33 0H0v141 33h33 94v-33H33V0zm351 0h-33v141 33h33 94v-33h-94V0zm-82.89 0h-.08v.1l-62 81.9-62-82h-33v174h33.29l.05-92.89.07.83V81l.2.32c12 19 47.34 74.87 115 92.62h.07v-30l-29.07-20 37.39-43.22v93.22h33v-174h-32.92V0z"/></g></g><defs><clipPath id="A"><path fill="#fff" d="M0 0h658.08v232.05H0z"/></clipPath></defs></svg>